<?xml version="1.0" encoding="UTF-8"?><svg id="Capa_2" xmlns="http://www.w3.org/2000/svg" xmlns:xlink="http://www.w3.org/1999/xlink" viewBox="0 0 259.34 116.79"><defs><style>.cls-1{fill:url(#Degradado_sin_nombre_48-2);}.cls-1,.cls-2,.cls-3,.cls-4,.cls-5,.cls-6{fill-rule:evenodd;}.cls-2{fill:url(#Degradado_sin_nombre_48-3);}.cls-3{fill:url(#Degradado_sin_nombre_48-7);}.cls-4{fill:url(#Degradado_sin_nombre_48-4);}.cls-5{fill:url(#Degradado_sin_nombre_48-5);}.cls-6{fill:url(#Degradado_sin_nombre_48-6);}.cls-7{fill:url(#Degradado_sin_nombre_48-9);}.cls-8{fill:url(#Degradado_sin_nombre_48-8);}.cls-9{fill:url(#Degradado_sin_nombre_48);}.cls-10{fill:url(#Degradado_sin_nombre_48-13);}.cls-11{fill:url(#Degradado_sin_nombre_48-12);}.cls-12{fill:url(#Degradado_sin_nombre_48-17);}.cls-13{fill:url(#Degradado_sin_nombre_48-16);}.cls-14{fill:url(#Degradado_sin_nombre_48-11);}.cls-15{fill:url(#Degradado_sin_nombre_48-10);}.cls-16{fill:url(#Degradado_sin_nombre_48-19);}.cls-17{fill:url(#Degradado_sin_nombre_48-18);}.cls-18{fill:url(#Degradado_sin_nombre_48-15);}.cls-19{fill:url(#Degradado_sin_nombre_48-14);}.cls-20{fill:url(#Degradado_sin_nombre_48-30);}.cls-21{fill:url(#Degradado_sin_nombre_48-32);}.cls-22{fill:url(#Degradado_sin_nombre_48-31);}.cls-23{fill:url(#Degradado_sin_nombre_48-38);}.cls-24{fill:url(#Degradado_sin_nombre_48-37);}.cls-25{fill:url(#Degradado_sin_nombre_48-39);}.cls-26{fill:url(#Degradado_sin_nombre_48-34);}.cls-27{fill:url(#Degradado_sin_nombre_48-33);}.cls-28{fill:url(#Degradado_sin_nombre_48-36);}.cls-29{fill:url(#Degradado_sin_nombre_48-35);}.cls-30{fill:url(#Degradado_sin_nombre_48-20);}.cls-31{fill:url(#Degradado_sin_nombre_48-23);}.cls-32{fill:url(#Degradado_sin_nombre_48-21);}.cls-33{fill:url(#Degradado_sin_nombre_48-26);}.cls-34{fill:url(#Degradado_sin_nombre_48-28);}.cls-35{fill:url(#Degradado_sin_nombre_48-25);}.cls-36{fill:url(#Degradado_sin_nombre_48-29);}.cls-37{fill:url(#Degradado_sin_nombre_48-22);}.cls-38{fill:url(#Degradado_sin_nombre_48-27);}.cls-39{fill:url(#Degradado_sin_nombre_48-24);}</style><linearGradient id="Degradado_sin_nombre_48" x1="164.21" y1="120.91" x2="171.97" y2="15.74" gradientUnits="userSpaceOnUse"><stop offset="0" stop-color="#b8687c"/><stop offset=".35" stop-color="#d79aa1"/><stop offset=".54" stop-color="#e5b2b2"/><stop offset="1" stop-color="#b2707d"/></linearGradient><linearGradient id="Degradado_sin_nombre_48-2" x1="-3.95" y1="108.5" x2="3.81" y2="3.32" xlink:href="#Degradado_sin_nombre_48"/><linearGradient id="Degradado_sin_nombre_48-3" x1="6.67" y1="109.28" x2="14.44" y2="4.11" xlink:href="#Degradado_sin_nombre_48"/><linearGradient id="Degradado_sin_nombre_48-4" x1="8.18" y1="109.39" x2="15.94" y2="4.22" xlink:href="#Degradado_sin_nombre_48"/><linearGradient id="Degradado_sin_nombre_48-5" x1="10.26" y1="109.55" x2="18.02" y2="4.37" xlink:href="#Degradado_sin_nombre_48"/><linearGradient id="Degradado_sin_nombre_48-6" x1="4.67" y1="109.13" x2="12.43" y2="3.96" xlink:href="#Degradado_sin_nombre_48"/><linearGradient id="Degradado_sin_nombre_48-7" x1="49.32" y1="112.43" x2="57.09" y2="7.25" xlink:href="#Degradado_sin_nombre_48"/><linearGradient id="Degradado_sin_nombre_48-8" x1="38.54" y1="111.63" x2="46.3" y2="6.46" xlink:href="#Degradado_sin_nombre_48"/><linearGradient id="Degradado_sin_nombre_48-9" x1="93.67" y1="115.7" x2="101.44" y2="10.53" xlink:href="#Degradado_sin_nombre_48"/><linearGradient id="Degradado_sin_nombre_48-10" x1="100.59" y1="116.21" x2="108.35" y2="11.04" xlink:href="#Degradado_sin_nombre_48"/><linearGradient id="Degradado_sin_nombre_48-11" x1="108.4" y1="116.79" x2="116.17" y2="11.62" xlink:href="#Degradado_sin_nombre_48"/><linearGradient id="Degradado_sin_nombre_48-12" x1="115.92" y1="117.35" x2="123.69" y2="12.17" xlink:href="#Degradado_sin_nombre_48"/><linearGradient id="Degradado_sin_nombre_48-13" x1="123.1" y1="117.88" x2="130.86" y2="12.7" xlink:href="#Degradado_sin_nombre_48"/><linearGradient id="Degradado_sin_nombre_48-14" x1="129.03" y1="118.31" x2="136.79" y2="13.14" xlink:href="#Degradado_sin_nombre_48"/><linearGradient id="Degradado_sin_nombre_48-15" x1="135.51" y1="118.79" x2="143.28" y2="13.62" xlink:href="#Degradado_sin_nombre_48"/><linearGradient id="Degradado_sin_nombre_48-16" x1="147.42" y1="119.67" x2="155.19" y2="14.5" xlink:href="#Degradado_sin_nombre_48"/><linearGradient id="Degradado_sin_nombre_48-17" x1="159.43" y1="120.56" x2="167.19" y2="15.38" xlink:href="#Degradado_sin_nombre_48"/><linearGradient id="Degradado_sin_nombre_48-18" x1="166.73" y1="121.1" x2="174.49" y2="15.92" xlink:href="#Degradado_sin_nombre_48"/><linearGradient id="Degradado_sin_nombre_48-19" x1="173.55" y1="121.6" x2="181.32" y2="16.43" xlink:href="#Degradado_sin_nombre_48"/><linearGradient id="Degradado_sin_nombre_48-20" x1="180.59" y1="122.12" x2="188.36" y2="16.94" xlink:href="#Degradado_sin_nombre_48"/><linearGradient id="Degradado_sin_nombre_48-21" x1="187.77" y1="122.65" x2="195.53" y2="17.47" xlink:href="#Degradado_sin_nombre_48"/><linearGradient id="Degradado_sin_nombre_48-22" x1="194.5" y1="123.15" x2="202.27" y2="17.97" xlink:href="#Degradado_sin_nombre_48"/><linearGradient id="Degradado_sin_nombre_48-23" x1="201.26" y1="123.65" x2="209.03" y2="18.47" xlink:href="#Degradado_sin_nombre_48"/><linearGradient id="Degradado_sin_nombre_48-24" x1="207.8" y1="124.13" x2="215.56" y2="18.95" xlink:href="#Degradado_sin_nombre_48"/><linearGradient id="Degradado_sin_nombre_48-25" x1="105.29" y1="116.56" x2="113.05" y2="11.39" xlink:href="#Degradado_sin_nombre_48"/><linearGradient id="Degradado_sin_nombre_48-26" x1="112.15" y1="117.07" x2="119.91" y2="11.89" xlink:href="#Degradado_sin_nombre_48"/><linearGradient id="Degradado_sin_nombre_48-27" x1="119.32" y1="117.6" x2="127.09" y2="12.42" xlink:href="#Degradado_sin_nombre_48"/><linearGradient id="Degradado_sin_nombre_48-28" x1="126.15" y1="118.1" x2="133.92" y2="12.93" xlink:href="#Degradado_sin_nombre_48"/><linearGradient id="Degradado_sin_nombre_48-29" x1="133.28" y1="118.63" x2="141.05" y2="13.45" xlink:href="#Degradado_sin_nombre_48"/><linearGradient id="Degradado_sin_nombre_48-30" x1="141.01" y1="119.2" x2="148.77" y2="14.02" xlink:href="#Degradado_sin_nombre_48"/><linearGradient id="Degradado_sin_nombre_48-31" x1="149.32" y1="119.81" x2="157.09" y2="14.63" xlink:href="#Degradado_sin_nombre_48"/><linearGradient id="Degradado_sin_nombre_48-32" x1="156.5" y1="120.34" x2="164.27" y2="15.17" xlink:href="#Degradado_sin_nombre_48"/><linearGradient id="Degradado_sin_nombre_48-33" x1="162.12" y1="120.76" x2="169.88" y2="15.58" xlink:href="#Degradado_sin_nombre_48"/><linearGradient id="Degradado_sin_nombre_48-34" x1="167.88" y1="121.18" x2="175.64" y2="16.01" xlink:href="#Degradado_sin_nombre_48"/><linearGradient id="Degradado_sin_nombre_48-35" x1="175.56" y1="121.75" x2="183.32" y2="16.57" xlink:href="#Degradado_sin_nombre_48"/><linearGradient id="Degradado_sin_nombre_48-36" x1="183.18" y1="122.31" x2="190.95" y2="17.14" xlink:href="#Degradado_sin_nombre_48"/><linearGradient id="Degradado_sin_nombre_48-37" x1="191.2" y1="122.9" x2="198.97" y2="17.73" xlink:href="#Degradado_sin_nombre_48"/><linearGradient id="Degradado_sin_nombre_48-38" x1="198.36" y1="123.43" x2="206.12" y2="18.26" xlink:href="#Degradado_sin_nombre_48"/><linearGradient id="Degradado_sin_nombre_48-39" x1="134.02" y1="82.31" x2="121.32" y2="117.84" xlink:href="#Degradado_sin_nombre_48"/></defs><g id="Capa_1-2"><path class="cls-9" d="M249.11,35.59c1.43,0,10.23-.47,10.23-2.62,0-.24-.24-.24-.48-.24-.47,0-.95,0-2.38.48-1.67.24-4.04.48-6.9.48-6.66,0-14.75-.71-14.75-.71-.23-.24,4.04-6.42,6.19-9.99,9.75-15.7,12.55-17.76,9.93-19.19-.48-.24-.72-.24-.72-.24-2.85-.24-17.78,24.19-20.16,28.23-.23.71,0,.95-.95.95-.71,0-1.9-.24-4.99-.47-6.19-.24-14.27-.72-22.36-.72-12.84,0-25.69,1.19-30.44,6.9-3.81,4.28-1.9,7.13-.71,7.13.23,0,.47-.47.23-1.43-.95-2.85,3.33-6.66,8.8-8.32,5.23-1.67,14.03-2.14,22.84-2.14s17.6.48,23.07.95c3.09.24,2.85,0,2.38.71-3.31,5.32-12.78,19.42-17.13,30.53-3.17,3.72-10.46,12.28-14.98,12.28h-.71c-.95-.24-1.43-.95-1.19-1.9,1.43-8.09,14.51-19.98,9.04-23.07-.48-.24-.71-.24-1.19-.24-4.99,0-14.98,9.99-17.84,12.84-6.66,6.66-9.04,8.56-9.52,8.56s0-1.19.48-2.38c3.8-9.99,9.75-14.03,7.37-16.17-.24-.24-.48-.24-.71-.24-2.18,0-6.06,4.8-8.75,9.95-3.64,3.9-11.31,12.41-16.23,12.41h-.71c-3.57-.95,1.9-8.8,4.28-12.13,1.67-2.85,2.14-3.57,1.9-4.52-.24-.95-.71-1.43-1.67-1.43-.47,0-.95,0-1.43.24-3.8,1.67-16.89,15.7-17.6,15.22-.71-.71,5.23-12.84,15.94-18.79.47.48.71.71.71,1.67.24.95.47,1.19.71,1.19.71,0,1.67-2.62.71-4.28-.71-1.19-1.67-1.67-2.85-1.67-3.8,0-9.51,4.99-12.37,8.32-1.25,1.45-2.36,3.02-3.3,4.6-4.08,4.52-11.41,12.05-16.91,12.05-2.38,0-3.57-1.43-2.61-4.99,2.14-7.61,13.56-19.27,15.7-19.74.24,0,.47,2.14.24,3.33-.48,2.85-3.81,6.9-5,5.95-.95-.95-1.43,1.67.71,1.43,5.23-.71,9.75-13.56,3.8-13.56-.71,0-1.19,0-1.9.24-3.55.97-10.68,7.4-14.56,14.33-2.89,3.37-10.68,12.79-15.41,12.79h-.71c-.95-.24-1.43-.95-1.19-1.9,1.43-8.09,14.51-19.98,9.04-23.07-.47-.24-.71-.24-1.19-.24-5,0-14.98,9.99-17.84,12.84-6.66,6.66-9.04,8.56-9.51,8.56s0-1.19.47-2.38c3.81-9.99,9.75-14.03,7.37-16.17-.24-.24-.47-.24-.71-.24-4.76,0-17.6,22.83-8.56,22.36,4.52-.24,15.94-16.65,24.74-21.41,1.43-.71,2.38-1.19,2.62-1.19,1.9,0-8.57,9.28-9.99,18.55-.71,4.04,1.43,6.9,5,6.9,1.43,0,3.09-.48,5-1.67,2.12-1.42,5.83-5.47,8.86-9.02-.51,1.72-.74,3.41-.54,4.98.24,4.99,3.09,5.23,6.9,5.23,4.01-.84,7.46-3,13.98-9.44-1.58,4.17-1.45,7.53,1.48,7.53s9.04-8.32,15.94-14.27c-.95,1.43-6.66,9.75-4.04,14.03.95,1.43,2.38,1.9,3.81,1.9.95,0,2.14,0,3.09-.48,3.66-1.35,8.56-6.28,12.07-10.13-1.76,4.67-1.87,8.67,1.97,8.47,4.52-.24,15.94-16.65,24.74-21.41,1.43-.71,2.38-1.19,2.62-1.19,1.9,0-8.56,9.28-9.99,18.55-.72,4.04,1.43,6.9,4.99,6.9,1.43,0,3.09-.48,5-1.67,2.19-1.46,6.04-5.7,9.12-9.32-1.56,5.42-1.28,9.6,2.54,10.75h.95c2.61,0,6.18-2.62,11.89-8.8.28-.32.5-.58.73-.85-.21.59-.38,1.13-.49,1.57-1.19,4.76.95,8.33,4.04,8.33,3.33,0,7.85-3.57,11.89-12.61.47-.95.47-1.19.71-1.19s.47,0,.95.24c.95.24,2.38.24,3.8.24,1.67,0,3.33,0,5-.48s0-1.67,0-1.67c-1.9.48-3.57.48-5.47.48-1.43,0-3.33-.71-3.33-.71.23-.72,1.9-4.52,1.9-8.8,0-2.62-1.19-4.04-2.85-4.04-1.19,0-2.62.71-4.04,2.14-.71.95-1.67,2.62-1.67,3.33,0,.24-.24.48-.95.48-2.24-.14-4.97,3.51-7.03,7.32-3.41,4.56-11.32,12.9-14.61,12.9-.95,0-1.43-.71-1.43-2.14.24-8.56,16.41-34.01,21.17-41.15,7.85.24,12.61.47,15.94.47ZM238.17,57c.48-1.19,2.14-2.85,3.33-2.85.71,0,1.43.71,1.19,2.62,0,2.62-1.67,7.13-1.9,7.13-.47,0-3.8-3.33-2.62-6.9ZM236.27,61.28c1.19,2.38.95,2.38,3.8,4.76-4.28,8.09-7.85,11.42-9.75,11.42-2.62,0-1.67-6.9,5.95-16.17Z"/><path class="cls-1" d="M1.36,9.58c-1.09,2.58.31,4.16,1.61,5.62.79.89,1.54,1.74,1.84,2.74.83-2.14-.3-3.47-1.44-4.83-.89-1.06-1.8-2.13-2-3.53h0ZM2.29,15.8c-1.8-2.03-3.76-4.24-.64-8.51.11-.18.33-.26.53-.19.24.08.37.34.29.58-.71,2.12.45,3.49,1.59,4.84,1.62,1.91,3.21,3.8.67,7.43-.1.18-.33.28-.53.21-.24-.08-.37-.33-.3-.57.46-1.46-.54-2.59-1.61-3.79h0Z"/><path class="cls-2" d="M6.87,26.91c2.42-4.29,5.05-3.48,7.47-2.73,1.43.44,2.77.86,3.83-.09.17-.16.44-.14.6.03.14.15.14.38.03.53-2.11,3.55-4.32,2.93-6.57,2.29-1.59-.45-3.19-.91-4.72.51-.17.16-.44.15-.6-.02-.14-.15-.15-.37-.04-.53h0ZM14.09,24.99c-1.75-.54-3.62-1.12-5.39.8,1.27-.37,2.52-.01,3.77.34,1.59.45,3.16.89,4.65-.63-.96.14-1.98-.18-3.03-.5h0Z"/><path class="cls-4" d="M20.93,4c.21,1.45.1,2.93-.35,4.34-.43,1.36-1.16,2.64-2.19,3.75-1.04,1.11-2.27,1.92-3.6,2.43-1.38.53-2.85.74-4.31.62-.3-.02-.52-.29-.5-.59.02-.2.14-.37.31-.45,1.17-.56,2.22-1.37,3.04-2.39.79-.98,1.38-2.15,1.69-3.46.13-.54.2-1.08.22-1.62.02-.54,0-1.09-.08-1.62-.04-.25.1-.49.33-.58.77-.36,1.58-.62,2.4-.77.84-.15,1.69-.19,2.54-.12.26.02.46.22.5.47h0ZM19.54,8.01c.35-1.11.47-2.27.36-3.42-.61-.02-1.22.03-1.82.14-.61.11-1.21.29-1.79.53.05.46.06.93.04,1.41-.03.6-.11,1.21-.25,1.82-.35,1.48-1.01,2.8-1.91,3.9-.48.59-1.03,1.13-1.63,1.59.63-.09,1.25-.25,1.84-.48,1.18-.45,2.27-1.17,3.2-2.15.92-.98,1.57-2.12,1.95-3.33h0Z"/><path class="cls-5" d="M24.83,10.62c-.54,1.36-1.38,2.59-2.47,3.59-1.05.96-2.32,1.71-3.78,2.15-1.45.44-2.93.52-4.33.3-1.46-.23-2.84-.79-4.05-1.62-.25-.17-.31-.51-.14-.76.12-.17.31-.25.5-.23,1.29.1,2.6-.08,3.82-.55,1.18-.45,2.27-1.17,3.2-2.15.38-.41.72-.84,1-1.29.29-.46.54-.95.74-1.45.09-.23.32-.36.55-.34.85.07,1.69.25,2.48.54.8.29,1.57.68,2.27,1.17.21.15.29.42.2.65h0ZM21.62,13.4c.86-.79,1.54-1.74,2.02-2.78-.52-.32-1.07-.59-1.64-.79-.59-.21-1.2-.36-1.82-.44-.19.43-.41.84-.67,1.24-.33.51-.7,1-1.12,1.45-1.04,1.11-2.27,1.92-3.6,2.43-.71.27-1.45.46-2.2.56.59.23,1.21.4,1.84.5,1.25.2,2.56.12,3.85-.27,1.29-.39,2.42-1.05,3.35-1.91h0Z"/><path class="cls-6" d="M14.25.23c.9,1.14,1.54,2.48,1.86,3.92.31,1.39.32,2.86-.03,4.34-.35,1.48-1.01,2.8-1.91,3.9-.93,1.15-2.1,2.07-3.42,2.69-.24.11-.52.03-.68-.17-.9-1.14-1.54-2.48-1.86-3.92-.31-1.39-.32-2.86.03-4.34.35-1.48,1.01-2.8,1.91-3.9.93-1.15,2.1-2.07,3.42-2.69.24-.11.52-.04.67.17h0ZM15.05,4.38c-.25-1.13-.73-2.2-1.4-3.14-1.01.54-1.92,1.29-2.65,2.19-.79.98-1.38,2.15-1.69,3.46-.31,1.31-.3,2.62-.02,3.86.25,1.14.73,2.2,1.4,3.14,1.01-.54,1.92-1.29,2.65-2.19.79-.98,1.38-2.15,1.69-3.46.31-1.31.3-2.62.02-3.86h0Z"/><path class="cls-3" d="M53.51,60.92l-5.64-6.22c-.13-.15-.04-.39.17-.4l7.36-.34c.73-.01.82-.26.13-.31l-7.93-.44,1.76-1.74s.1-.07.17-.07h8.28c.06,0,.11.02.16.06l2.34,2.07c.1.09.11.24.02.34l-3.55,4.02c-.26.27-.04.41.2.19l5.06-4.16c.11-.09.12-.25.02-.35l-3.36-3.55s-.11-.07-.17-.07h-9.97c-.07,0-.13.03-.18.08l-3.13,3.56c-.08.1-.08.24.01.33l8.04,7.79c.53.54.87-.07.21-.79Z"/><path class="cls-8" d="M9.41,18.49c-1.54,1.4-2.8,3.17-3.36,5.16-.6,1.97-.39,4.14.61,5.9,2.01,3.66,6.46,5.17,10.62,5.71,4.26.55,8.63.29,12.92-.29,4.3-.58,8.56-1.57,12.73-2.81,8.34-2.47,16.43-5.87,23.92-10.24,3.73-2.19,7.32-4.63,10.59-7.39,1.63-1.38,3.2-2.83,4.48-4.4.63-.78,1.19-1.61,1.55-2.41.38-.81.45-1.56.29-1.92-.13-.35-.6-.73-1.41-.97-.78-.24-1.74-.32-2.72-.32-1.96.01-4.02.39-6.03.93-4.03,1.11-7.93,2.9-11.58,5.06-3.64,2.21-7.19,4.61-9.46,7.78-1.1,1.58-1.83,3.33-1.84,5.16-.04,1.83.66,3.7,1.76,5.37,1.11,1.7,2.58,3.13,4.3,4.45.87.74,1.75,1.32,2.63,2.4.18.29.54.65.46,1.48-.19.87-.78,1.09-1.08,1.26-.68.28-1.23.39-1.8.5-4.44.7-8.72,1.19-12.96,2.26-8.41,2.09-16.56,5.51-23.07,10.82-3.24,2.67-5.95,5.83-8.15,9.24-2.13,3.47-3.85,7.14-5.02,11.06-2.51,7.75-2.33,16.16,1.22,23.39,7.11,14.51,26.9,22.54,42.93,16.32,4-1.55,7.85-3.57,11.12-6.31,3.3-2.7,6.03-6.06,7.84-9.83,1.79-3.77,2.68-7.95,2.22-12.04-.45-4.07-2.12-8-4.86-11.12-5.36-6.43-14.62-9.05-22.73-6.75-4.06,1.09-7.79,3.34-10.66,6.43-2.89,3.09-4.83,7.03-5.78,11.21-.08.35-.42.56-.77.48-.34-.08-.55-.41-.49-.75.83-4.4,2.72-8.69,5.71-12.14,2.96-3.49,7.04-5.96,11.42-7.26,4.39-1.3,9.15-1.35,13.6-.14,4.46,1.17,8.55,3.76,11.63,7.19,3.1,3.43,5.24,7.87,5.66,12.55.47,4.66-.55,9.4-2.71,13.46-2.14,4.07-5.2,7.58-8.76,10.35-3.55,2.79-7.49,5.05-11.67,6.68-8.4,3.47-18.02,3.58-26.75.89-8.72-2.67-16.86-8.39-21.67-16.71-4.94-8.3-5.37-18.82-2.6-27.74,2.55-9.1,8.95-17.02,16.72-21.91,7.71-5.1,16.48-7.73,25.18-9.29,4.34-.83,8.8-1.31,13.01-2.11.5-.11,1.03-.24,1.35-.41.17-.07.13-.18.01.12,0,.27.02.12-.12,0-.54-.6-1.49-1.29-2.36-1.88-1.86-1.21-3.72-2.74-5.16-4.62-1.45-1.87-2.58-4.21-2.73-6.8-.17-2.58.66-5.16,2-7.21,2.7-4.16,6.7-6.75,10.52-9.03,3.92-2.26,8.09-4.14,12.54-5.32,2.23-.58,4.53-.99,6.96-.99,1.22,0,2.47.14,3.78.57,1.25.41,2.84,1.32,3.48,3.09.58,1.75.07,3.3-.48,4.45-.58,1.18-1.3,2.16-2.07,3.06-1.55,1.79-3.27,3.28-5.02,4.69-3.52,2.81-7.32,5.19-11.23,7.31-7.84,4.2-16.13,7.46-24.67,9.78-8.54,2.19-17.4,3.9-26.35,2.78-2.22-.33-4.45-.86-6.52-1.87-2.06-.99-3.97-2.56-5.06-4.68-1.15-2.09-1.28-4.64-.62-6.86.63-2.26,2.01-4.21,3.7-5.75.25-.23.65-.22.88.04.23.25.22.65-.04.88h0s0,.01,0,.01Z"/><path class="cls-7" d="M94.82,90.31h2.19v.11c-.07,0-.14.01-.19.02-.05,0-.1.02-.13.04-.03.02-.06.06-.08.1-.02.05-.03.11-.03.2v4.04c0,.58-.15,1.02-.45,1.32s-.74.46-1.31.46c-.08,0-.18-.01-.31-.03-.13-.02-.25-.06-.37-.1-.12-.05-.23-.11-.32-.19-.09-.08-.14-.17-.15-.27-.01,0,0,0,.02,0,.02,0,.05-.01.07-.02.02,0,.04,0,.04,0,.02.04.07.07.15.1.08.03.18.04.29.05s.23-.01.35-.04.24-.08.34-.16c.11-.07.19-.18.26-.3.07-.13.1-.29.1-.49v-4.36c0-.09-.01-.16-.03-.21-.02-.05-.05-.08-.09-.1-.04-.02-.09-.04-.15-.04s-.12,0-.2,0v-.11Z"/><path class="cls-15" d="M105.04,94.49c-.14.37-.33.69-.59.97-.26.27-.57.48-.94.64-.37.15-.78.23-1.23.23s-.87-.07-1.24-.22c-.37-.15-.68-.36-.94-.63-.26-.27-.46-.6-.59-.97-.14-.38-.21-.79-.21-1.23s.07-.87.2-1.24c.13-.38.33-.7.59-.97.26-.27.57-.48.94-.63.37-.15.78-.22,1.25-.22s.87.08,1.24.23c.37.15.68.36.93.63.25.27.45.59.59.97.14.38.21.79.21,1.24s-.07.86-.21,1.23ZM103.81,92.45c-.05-.29-.13-.56-.25-.8s-.28-.45-.49-.61-.47-.24-.78-.24-.58.08-.79.24c-.21.16-.37.37-.49.61s-.2.51-.25.8c-.05.29-.07.56-.07.81s.02.53.07.82c.05.29.13.55.25.8s.28.45.49.61c.21.16.47.24.79.24s.58-.08.78-.24c.21-.16.37-.36.49-.61s.2-.51.25-.8.07-.56.07-.81-.02-.52-.07-.81Z"/><path class="cls-14" d="M111.58,90.31h1.66v.11c-.13.02-.21.05-.27.1-.05.05-.11.13-.17.23l-1.79,2.94v2.03c0,.09,0,.15.03.2s.04.08.08.1c.04.02.08.03.14.04.06,0,.12,0,.2,0v.11h-2.19v-.11c.08,0,.14-.01.2-.02.06,0,.1-.02.14-.04.04-.02.07-.05.09-.1.02-.05.03-.12.03-.2v-1.86l-1.87-3.17c-.05-.07-.1-.13-.17-.18-.07-.05-.14-.08-.22-.08v-.11h2.22v.11c-.06,0-.12,0-.18,0s-.1.01-.14.03c-.04.02-.06.05-.07.09,0,.04.01.1.06.18l1.28,2.31,1.25-2.16c.1-.17.12-.29.06-.35-.07-.06-.18-.1-.36-.11v-.11Z"/><path class="cls-11" d="M115.46,96.19v-.11c.07,0,.14-.01.19-.02.05,0,.09-.02.13-.04.04-.02.06-.06.08-.1.02-.04.03-.11.03-.2v-4.94c0-.16-.03-.26-.1-.3-.07-.04-.17-.06-.32-.06v-.11h4.35v1.34s-.11,0-.11,0c-.05-.3-.15-.5-.3-.6s-.38-.15-.67-.15h-1.25c-.1,0-.18,0-.22.03-.05.02-.07.09-.07.2v1.73h1.14c.25,0,.42-.05.52-.15.1-.1.16-.27.19-.51h.12v1.94h-.12c-.02-.24-.08-.42-.18-.52-.1-.11-.27-.16-.52-.16h-1.14v1.89c0,.13.04.2.12.22.08.02.17.03.27.03h1.14c.31,0,.56-.06.76-.19.19-.13.35-.33.46-.62h.13l-.2,1.4h-4.4Z"/><path class="cls-10" d="M123.98,95.73c0,.16.04.26.11.3.07.04.18.06.31.06v.11h-2.13v-.11c.14,0,.25-.03.32-.06.07-.03.1-.13.1-.3v-4.94c0-.15-.04-.25-.11-.3-.08-.04-.18-.06-.31-.06v-.11h2.38c.26,0,.53.02.81.06s.52.11.75.22c.22.11.41.27.55.47.14.2.21.47.21.79,0,.21-.04.39-.12.55s-.19.3-.33.42-.3.22-.48.3-.37.14-.55.18c.18.13.35.28.5.47s.29.38.42.59.24.41.35.61c.11.2.21.39.3.55.09.16.18.29.26.4.08.1.16.15.25.15v.11h-1.56c-.19-.5-.42-.97-.68-1.4s-.59-.83-.99-1.19h-.35v2.13ZM124.25,93.01c.2,0,.39-.01.55-.04s.31-.08.44-.15c.12-.08.22-.19.29-.33.07-.14.1-.33.1-.55,0-.36-.1-.62-.3-.79-.2-.16-.47-.25-.81-.25-.11,0-.22,0-.31.03-.09.02-.17.08-.23.19v1.88h.27Z"/><path class="cls-19" d="M131.98,96.19h-2.19v-.11c.07,0,.14-.01.2-.02s.1-.02.14-.04c.04-.02.06-.06.08-.1.02-.04.03-.11.03-.2v-4.94c0-.09,0-.15-.03-.2-.02-.05-.05-.08-.09-.1-.04-.02-.08-.03-.14-.04s-.12,0-.2,0v-.11h2.19v.11c-.07,0-.14.01-.2.02s-.1.02-.14.04c-.04.02-.06.06-.08.1-.02.05-.03.11-.03.2v4.94c0,.09,0,.15.03.2.02.05.05.08.09.1.04.02.08.03.14.04.06,0,.12,0,.2,0v.11Z"/><path class="cls-18" d="M140.18,96.19h-2.11v-.11c.07,0,.13,0,.18,0s.1-.02.13-.04c.04-.02.06-.06.06-.11,0-.05,0-.11-.04-.19l-.42-1.1h-2.17l-.41,1.08c-.03.08-.04.14-.03.19s.02.09.06.11c.03.03.08.04.13.05.06,0,.12.01.19.01v.11h-1.55v-.11c.11-.02.19-.06.25-.12.06-.07.11-.15.15-.25l2.18-5.46h.78l2.24,5.5c.04.08.08.16.14.23.06.07.14.11.24.11v.11ZM136.89,91.71l-.85,2.29h1.73l-.88-2.29Z"/><path class="cls-13" d="M151.22,95.34c.17.16.37.3.59.42.13,0,.23-.07.31-.2l.13.1c-.4.4-.87.6-1.43.59-.12,0-.22-.02-.3-.06s-.16-.08-.22-.14c-.07-.06-.13-.12-.19-.2-.06-.08-.13-.15-.2-.22-.28.23-.56.4-.86.51s-.62.15-.98.15c-.25,0-.5-.03-.74-.1-.24-.07-.45-.2-.64-.38-.15-.16-.27-.33-.35-.52-.08-.19-.12-.39-.12-.59,0-.2.03-.4.1-.59.07-.19.18-.37.33-.53.15-.16.31-.29.49-.4.18-.11.37-.21.56-.3-.17-.2-.3-.41-.42-.61-.11-.21-.17-.45-.17-.72,0-.3.08-.56.24-.76.16-.2.36-.35.61-.46.24-.1.51-.16.79-.16.28,0,.55.03.79.12s.45.22.61.4c.16.18.24.39.24.65,0,.19-.04.36-.11.51-.07.15-.17.29-.28.4-.12.11-.25.22-.4.3-.15.09-.31.17-.47.24.2.26.39.51.58.76.19.25.39.5.59.75.04-.06.1-.15.17-.27.07-.12.14-.24.21-.38.07-.13.12-.26.16-.39s.06-.22.04-.29c-.01-.06-.05-.1-.12-.12-.07-.02-.13-.03-.18-.03v-.11h1.49v.11c-.1.01-.17.03-.23.06-.05.03-.1.08-.15.18-.15.3-.29.6-.43.91-.14.31-.32.59-.54.85.16.18.33.36.5.52ZM147.83,93.49c-.07.05-.13.11-.2.18-.13.14-.21.3-.23.48-.02.18,0,.36.06.54.06.18.16.34.29.49.13.15.29.25.47.32.18.07.38.08.61.04s.45-.15.68-.35c-.26-.3-.51-.61-.74-.92-.24-.31-.48-.62-.72-.93-.08.05-.16.1-.22.15ZM149.11,92.19c.17-.11.27-.25.32-.42s.05-.33,0-.48-.12-.29-.25-.4c-.12-.11-.26-.16-.42-.16-.18,0-.32.05-.43.14-.11.09-.16.23-.16.42,0,.13.02.25.07.36.05.11.11.22.18.31.11.15.23.29.34.42.13-.06.24-.12.33-.19Z"/><path class="cls-12" d="M158.77,90.31h2.26c.47,0,.91.06,1.31.17.4.11.75.29,1.04.52.29.24.53.54.69.9.17.36.25.8.25,1.3s-.08.95-.24,1.33c-.16.38-.39.69-.68.93s-.64.43-1.04.55c-.4.12-.85.18-1.33.18h-2.25v-.11c.14,0,.24-.02.3-.06.06-.04.09-.14.09-.3v-4.94c0-.14-.03-.24-.1-.29-.07-.05-.17-.07-.3-.06v-.11ZM160.46,95.34c.06.11.14.18.25.2.1.03.21.04.32.04.35,0,.65-.06.89-.18s.45-.29.6-.5c.15-.21.27-.46.33-.74.07-.28.1-.58.1-.9,0-.29-.04-.58-.11-.86-.07-.28-.19-.53-.34-.75-.15-.22-.35-.39-.59-.53-.24-.13-.52-.2-.85-.2-.1,0-.21,0-.32.02-.12.01-.21.06-.28.15v4.25Z"/><path class="cls-17" d="M166.54,96.19v-.11c.07,0,.14-.01.19-.02.05,0,.09-.02.13-.04.04-.02.06-.06.08-.1.02-.04.03-.11.03-.2v-4.94c0-.16-.03-.26-.1-.3-.07-.04-.17-.06-.32-.06v-.11h4.35v1.34s-.11,0-.11,0c-.05-.3-.15-.5-.3-.6s-.38-.15-.67-.15h-1.25c-.1,0-.18,0-.22.03-.05.02-.07.09-.07.2v1.73h1.14c.25,0,.42-.05.52-.15.1-.1.16-.27.19-.51h.12v1.94h-.12c-.02-.24-.08-.42-.18-.52-.1-.11-.27-.16-.52-.16h-1.14v1.89c0,.13.04.2.12.22.08.02.17.03.27.03h1.14c.31,0,.56-.06.76-.19.19-.13.35-.33.46-.62h.13l-.2,1.4h-4.4Z"/><path class="cls-16" d="M176.92,96.19h-2.22v-.11c.07,0,.14-.01.2-.02.06,0,.11-.02.15-.04.04-.02.07-.05.09-.1.02-.05.03-.12.03-.2v-4.8c-.19,0-.38,0-.56-.02s-.36,0-.51.04c-.15.04-.28.11-.39.22-.11.11-.18.29-.21.53h-.14l.02-1.38h4.87l.02,1.38h-.14c-.03-.24-.1-.42-.21-.53-.11-.11-.23-.19-.39-.22-.15-.04-.32-.05-.5-.04-.18.01-.37.02-.57.02v4.81c0,.09,0,.15.03.2.02.05.05.08.09.1.04.02.09.03.15.04.06,0,.12,0,.2,0v.11Z"/><path class="cls-30" d="M185.5,96.19h-2.11v-.11c.07,0,.13,0,.18,0s.1-.02.13-.04c.04-.02.06-.06.06-.11,0-.05,0-.11-.04-.19l-.42-1.1h-2.17l-.41,1.08c-.03.08-.04.14-.03.19s.02.09.06.11c.03.03.08.04.13.05.06,0,.12.01.19.01v.11h-1.55v-.11c.11-.02.19-.06.25-.12.06-.07.11-.15.15-.25l2.18-5.46h.78l2.24,5.5c.04.08.08.16.14.23.06.07.14.11.24.11v.11ZM182.22,91.71l-.85,2.29h1.73l-.88-2.29Z"/><path class="cls-32" d="M192.27,94.71l-.21,1.48h-4.35v-.11c.15-.01.25-.03.32-.06.06-.03.09-.13.09-.3v-4.94c0-.16-.03-.26-.1-.29-.07-.03-.17-.05-.31-.06v-.11h2.17v.11c-.08,0-.15.01-.21.02-.06,0-.11.02-.15.04-.04.02-.07.05-.09.1-.02.05-.03.11-.03.21v4.56c0,.13.04.2.12.22.08.02.17.03.28.03h1.08c.19,0,.35-.02.47-.05.13-.03.23-.08.32-.15.09-.07.17-.16.24-.27.07-.11.14-.25.21-.42h.14Z"/><path class="cls-37" d="M199.04,94.71l-.21,1.48h-4.35v-.11c.15-.01.25-.03.32-.06.06-.03.09-.13.09-.3v-4.94c0-.16-.03-.26-.1-.29-.07-.03-.17-.05-.31-.06v-.11h2.17v.11c-.08,0-.15.01-.21.02-.06,0-.11.02-.15.04-.04.02-.07.05-.09.1-.02.05-.03.11-.03.21v4.56c0,.13.04.2.12.22.08.02.17.03.28.03h1.08c.19,0,.35-.02.47-.05.13-.03.23-.08.32-.15.09-.07.17-.16.24-.27.07-.11.14-.25.21-.42h.14Z"/><path class="cls-31" d="M201.26,96.19v-.11c.07,0,.14-.01.19-.02.05,0,.09-.02.13-.04.04-.02.06-.06.08-.1.02-.04.03-.11.03-.2v-4.94c0-.16-.03-.26-.1-.3-.07-.04-.17-.06-.32-.06v-.11h4.35v1.34s-.11,0-.11,0c-.05-.3-.15-.5-.3-.6s-.38-.15-.67-.15h-1.25c-.1,0-.18,0-.22.03-.05.02-.07.09-.07.2v1.73h1.14c.25,0,.42-.05.52-.15.1-.1.16-.27.19-.51h.12v1.94h-.12c-.02-.24-.08-.42-.18-.52-.1-.11-.27-.16-.52-.16h-1.14v1.89c0,.13.04.2.12.22.08.02.17.03.27.03h1.14c.31,0,.56-.06.76-.19.19-.13.35-.33.46-.62h.13l-.2,1.4h-4.4Z"/><path class="cls-39" d="M208.1,96.22l.06-1.65h.1c.06.25.17.46.33.63.15.17.33.3.53.39.2.09.4.14.61.15s.41-.02.58-.08c.17-.06.32-.16.43-.29s.17-.29.17-.49c0-.21-.07-.39-.21-.52-.14-.14-.31-.26-.52-.37-.21-.11-.43-.21-.68-.31s-.47-.23-.68-.37c-.21-.15-.38-.33-.52-.54-.14-.22-.21-.5-.21-.83,0-.3.05-.56.16-.77.11-.22.25-.4.44-.54.19-.14.4-.24.64-.31.24-.07.5-.1.78-.1.13,0,.26,0,.39.03.13.02.25.05.38.08.01,0,.05.02.11.03.06.01.12.03.19.05.07.02.13.03.18.05.05.01.08.02.09.02.1-.01.16-.07.16-.16h.14l-.06,1.5h-.1c-.04-.19-.13-.35-.26-.49-.13-.14-.29-.25-.47-.33s-.37-.13-.56-.15c-.2-.02-.38,0-.54.04-.17.05-.3.14-.41.26-.11.13-.16.29-.16.5,0,.19.07.35.21.47.14.13.32.24.53.35.21.11.44.21.69.32.25.11.48.24.69.4.21.15.39.35.53.58.14.23.21.51.21.85,0,.26-.05.5-.15.71-.1.21-.25.4-.46.57-.17.14-.36.24-.56.31-.2.07-.41.12-.62.14-.21.02-.43.02-.64,0-.22-.02-.43-.06-.63-.11-.02,0-.06-.02-.12-.03-.06-.01-.13-.03-.21-.05-.07-.02-.14-.03-.2-.04-.06-.01-.1-.02-.11-.02-.08.02-.13.07-.14.15h-.14Z"/><path class="cls-35" d="M105.76,106.8c0,.17.04.27.11.3s.18.05.32.05v.11h-2.11v-.11c.14,0,.24-.03.3-.06s.09-.14.09-.3v-4.94c0-.15-.03-.25-.1-.3-.07-.05-.17-.07-.3-.06v-.11h2.22c.28,0,.56.02.84.07s.53.14.76.26c.22.13.4.3.54.52.14.22.21.5.21.84s-.06.59-.19.82-.29.4-.5.54c-.21.14-.45.24-.72.3-.27.06-.54.09-.83.09h-.64v1.97ZM106.08,104.24c.4,0,.7-.09.9-.26s.3-.46.3-.88c0-.36-.09-.64-.27-.83-.18-.19-.45-.28-.81-.28-.07,0-.16,0-.24.03-.09.02-.15.06-.2.13v2.09h.33Z"/><path class="cls-33" d="M110.84,107.27v-.11c.07,0,.14-.01.19-.02.05,0,.09-.02.13-.04.04-.02.06-.06.08-.1.02-.04.03-.11.03-.2v-4.94c0-.16-.03-.26-.1-.3-.07-.04-.17-.06-.32-.06v-.11h4.35v1.34s-.11,0-.11,0c-.05-.3-.15-.5-.3-.6s-.38-.15-.67-.15h-1.25c-.1,0-.18,0-.22.03-.05.02-.07.09-.07.2v1.73h1.14c.25,0,.42-.05.52-.15.1-.1.16-.27.19-.51h.12v1.94h-.12c-.02-.24-.08-.42-.18-.52-.1-.11-.27-.16-.52-.16h-1.14v1.89c0,.13.04.2.12.22.08.02.17.03.27.03h1.14c.31,0,.56-.06.76-.19.19-.13.35-.33.46-.62h.13l-.2,1.4h-4.4Z"/><path class="cls-38" d="M119.37,106.8c0,.16.04.26.11.3.07.04.18.06.31.06v.11h-2.13v-.11c.14,0,.25-.03.32-.06.07-.03.1-.13.1-.3v-4.94c0-.15-.04-.25-.11-.3-.08-.04-.18-.06-.31-.06v-.11h2.38c.26,0,.53.02.81.06s.52.11.75.22c.22.11.41.27.55.47.14.2.21.47.21.79,0,.21-.04.39-.12.55s-.19.3-.33.42-.3.22-.48.3-.37.14-.55.18c.18.13.35.28.5.47s.29.38.42.59.24.41.35.61c.11.2.21.39.3.55.09.16.18.29.26.4.08.1.16.15.25.15v.11h-1.56c-.19-.5-.42-.97-.68-1.4s-.59-.83-.99-1.19h-.35v2.13ZM119.63,104.09c.2,0,.39-.01.55-.04s.31-.08.44-.15c.12-.08.22-.19.29-.33.07-.14.1-.33.1-.55,0-.36-.1-.62-.3-.79-.2-.16-.47-.25-.81-.25-.11,0-.22,0-.31.03-.09.02-.17.08-.23.19v1.88h.27Z"/><path class="cls-34" d="M125.19,107.29l.06-1.65h.1c.06.25.17.46.33.63.15.17.33.3.53.39.2.09.4.14.61.15s.41-.02.58-.08c.17-.06.32-.16.43-.29s.17-.29.17-.49c0-.21-.07-.39-.21-.52-.14-.14-.31-.26-.52-.37-.21-.11-.43-.21-.68-.31s-.47-.23-.68-.37c-.21-.15-.38-.33-.52-.54-.14-.22-.21-.5-.21-.83,0-.3.05-.56.16-.77.11-.22.25-.4.44-.54.19-.14.4-.24.64-.31.24-.07.5-.1.78-.1.13,0,.26,0,.39.03.13.02.25.05.38.08.01,0,.05.02.11.03.06.01.12.03.19.05.07.02.13.03.18.05.05.01.08.02.09.02.1-.01.16-.07.16-.16h.14l-.06,1.5h-.1c-.04-.19-.13-.35-.26-.49-.13-.14-.29-.25-.47-.33s-.37-.13-.56-.15c-.2-.02-.38,0-.54.04-.17.05-.3.14-.41.26-.11.13-.16.29-.16.5,0,.19.07.35.21.47.14.13.32.24.53.35.21.11.44.21.69.32.25.11.48.24.69.4.21.15.39.35.53.58.14.23.21.51.21.85,0,.26-.05.5-.15.71-.1.21-.25.4-.46.57-.17.14-.36.24-.56.31-.2.07-.41.12-.62.14-.21.02-.43.02-.64,0-.22-.02-.43-.06-.63-.11-.02,0-.06-.02-.12-.03-.06-.01-.13-.03-.21-.05-.07-.02-.14-.03-.2-.04-.06-.01-.1-.02-.11-.02-.08.02-.13.07-.14.15h-.14Z"/><path class="cls-36" d="M137.1,105.57c-.14.37-.33.69-.59.97-.26.27-.57.48-.94.64-.37.15-.78.23-1.23.23s-.87-.07-1.24-.22c-.37-.15-.68-.36-.94-.63-.26-.27-.46-.6-.59-.97-.14-.38-.21-.79-.21-1.23s.07-.87.2-1.24c.13-.38.33-.7.59-.97.26-.27.57-.48.94-.63.37-.15.78-.22,1.25-.22s.87.08,1.24.23c.37.15.68.36.93.63.25.27.45.59.59.97.14.38.21.79.21,1.24s-.07.86-.21,1.23ZM135.86,103.53c-.05-.29-.13-.56-.25-.8s-.28-.45-.49-.61-.47-.24-.78-.24-.58.08-.79.24c-.21.16-.37.37-.49.61s-.2.51-.25.8c-.05.29-.07.56-.07.81s.02.53.07.82c.05.29.13.55.25.8s.28.45.49.61c.21.16.47.24.79.24s.58-.08.78-.24c.21-.16.37-.36.49-.61s.2-.51.25-.8.07-.56.07-.81-.02-.52-.07-.81Z"/><path class="cls-20" d="M143.91,101.92c0-.17-.03-.28-.1-.34-.07-.06-.18-.09-.33-.08v-.11h1.57v.11c-.08,0-.14.02-.19.03s-.09.04-.12.07c-.03.03-.05.07-.06.12s-.02.12-.02.21v5.41h-.81s-.04-.04-.04-.05l-3.11-4.51v3.91c0,.1,0,.18.02.24.01.06.03.11.07.14.03.03.08.06.14.07.06.01.14.02.23.02v.1h-1.63v-.1c.09,0,.16-.02.22-.03s.1-.04.13-.07.05-.08.06-.14c.01-.06.02-.13.02-.23v-4.73c0-.12-.04-.23-.11-.32s-.17-.13-.3-.13v-.11h1.68c.44.69.89,1.37,1.35,2.04.46.67.91,1.34,1.35,2.04v-3.54Z"/><path class="cls-22" d="M153.24,107.27h-2.11v-.11c.07,0,.13,0,.18,0s.1-.02.13-.04c.04-.02.06-.06.06-.11,0-.05,0-.11-.04-.19l-.42-1.1h-2.17l-.41,1.08c-.03.08-.04.14-.03.19s.02.09.06.11c.03.03.08.04.13.05.06,0,.12.01.19.01v.11h-1.55v-.11c.11-.02.19-.06.25-.12.06-.07.11-.15.15-.25l2.18-5.46h.78l2.24,5.5c.04.08.08.16.14.23.06.07.14.11.24.11v.11ZM149.96,102.79l-.85,2.29h1.73l-.88-2.29Z"/><path class="cls-21" d="M160.02,105.79l-.21,1.48h-4.35v-.11c.15-.01.25-.03.32-.06.06-.03.09-.13.09-.3v-4.94c0-.16-.03-.26-.1-.29-.07-.03-.17-.05-.31-.06v-.11h2.17v.11c-.08,0-.15.01-.21.02-.06,0-.11.02-.15.04-.04.02-.07.05-.09.1-.02.05-.03.11-.03.21v4.56c0,.13.04.2.12.22.08.02.17.03.28.03h1.08c.19,0,.35-.02.47-.05.13-.03.23-.08.32-.15.09-.07.17-.16.24-.27.07-.11.14-.25.21-.42h.14Z"/><path class="cls-27" d="M164.43,107.27h-2.19v-.11c.07,0,.14-.01.2-.02s.1-.02.14-.04c.04-.02.06-.06.08-.1.02-.04.03-.11.03-.2v-4.94c0-.09,0-.15-.03-.2-.02-.05-.05-.08-.09-.1-.04-.02-.08-.03-.14-.04s-.12,0-.2,0v-.11h2.19v.11c-.07,0-.14.01-.2.02s-.1.02-.14.04c-.04.02-.06.06-.08.1-.02.05-.03.11-.03.2v4.94c0,.09,0,.15.03.2.02.05.05.08.09.1.04.02.08.03.14.04.06,0,.12,0,.2,0v.11Z"/><path class="cls-26" d="M171.43,105.73l-.13,1.54h-4.65v-.54l3.14-4.73h-1.68c-.17,0-.31.02-.43.04-.12.02-.22.06-.31.11s-.17.13-.23.24c-.06.1-.12.24-.16.4h-.14l.1-1.39h4.33v.52l-3.14,4.74h1.86c.19,0,.35-.01.5-.04.14-.03.27-.07.37-.14.1-.07.19-.16.26-.28.07-.12.13-.27.18-.46h.13Z"/><path class="cls-29" d="M179.62,107.27h-2.11v-.11c.07,0,.13,0,.18,0s.1-.02.13-.04c.04-.02.06-.06.06-.11,0-.05,0-.11-.04-.19l-.42-1.1h-2.17l-.41,1.08c-.03.08-.04.14-.03.19s.02.09.06.11c.03.03.08.04.13.05.06,0,.12.01.19.01v.11h-1.55v-.11c.11-.02.19-.06.25-.12.06-.07.11-.15.15-.25l2.18-5.46h.78l2.24,5.5c.04.08.08.16.14.23.06.07.14.11.24.11v.11ZM176.34,102.79l-.85,2.29h1.73l-.88-2.29Z"/><path class="cls-28" d="M181.84,101.39h2.26c.47,0,.91.06,1.31.17.4.11.75.29,1.04.52.29.24.53.54.69.9.17.36.25.8.25,1.3s-.08.95-.24,1.33c-.16.38-.39.69-.68.93s-.64.43-1.04.55c-.4.12-.85.18-1.33.18h-2.25v-.11c.14,0,.24-.02.3-.06.06-.04.09-.14.09-.3v-4.94c0-.14-.03-.24-.1-.29-.07-.05-.17-.07-.3-.06v-.11ZM183.53,106.42c.06.11.14.18.25.2.1.03.21.04.32.04.35,0,.65-.06.89-.18s.45-.29.6-.5c.15-.21.27-.46.33-.74.07-.28.1-.58.1-.9,0-.29-.04-.58-.11-.86-.07-.28-.19-.53-.34-.75-.15-.22-.35-.39-.59-.53-.24-.13-.52-.2-.85-.2-.1,0-.21,0-.32.02-.12.01-.21.06-.28.15v4.25Z"/><path class="cls-24" d="M195.34,105.57c-.14.37-.33.69-.59.97-.26.27-.57.48-.94.64-.37.15-.78.23-1.23.23s-.87-.07-1.24-.22c-.37-.15-.68-.36-.94-.63-.26-.27-.46-.6-.59-.97-.14-.38-.21-.79-.21-1.23s.07-.87.2-1.24c.13-.38.33-.7.59-.97.26-.27.57-.48.94-.63.37-.15.78-.22,1.25-.22s.87.08,1.24.23c.37.15.68.36.93.63.25.27.45.59.59.97.14.38.21.79.21,1.24s-.07.86-.21,1.23ZM194.1,103.53c-.05-.29-.13-.56-.25-.8s-.28-.45-.49-.61-.47-.24-.78-.24-.58.08-.79.24c-.21.16-.37.37-.49.61s-.2.51-.25.8c-.05.29-.07.56-.07.81s.02.53.07.82c.05.29.13.55.25.8s.28.45.49.61c.21.16.47.24.79.24s.58-.08.78-.24c.21-.16.37-.36.49-.61s.2-.51.25-.8.07-.56.07-.81-.02-.52-.07-.81Z"/><path class="cls-23" d="M197.79,107.29l.06-1.65h.1c.06.25.17.46.33.63.15.17.33.3.53.39.2.09.4.14.61.15s.41-.02.58-.08c.17-.06.32-.16.43-.29s.17-.29.17-.49c0-.21-.07-.39-.21-.52-.14-.14-.31-.26-.52-.37-.21-.11-.43-.21-.68-.31s-.47-.23-.68-.37c-.21-.15-.38-.33-.52-.54-.14-.22-.21-.5-.21-.83,0-.3.05-.56.16-.77.11-.22.25-.4.44-.54.19-.14.4-.24.64-.31.24-.07.5-.1.78-.1.13,0,.26,0,.39.03.13.02.25.05.38.08.01,0,.05.02.11.03.06.01.12.03.19.05.07.02.13.03.18.05.05.01.08.02.09.02.1-.01.16-.07.16-.16h.14l-.06,1.5h-.1c-.04-.19-.13-.35-.26-.49-.13-.14-.29-.25-.47-.33s-.37-.13-.56-.15c-.2-.02-.38,0-.54.04-.17.05-.3.14-.41.26-.11.13-.16.29-.16.5,0,.19.07.35.21.47.14.13.32.24.53.35.21.11.44.21.69.32.25.11.48.24.69.4.21.15.39.35.53.58.14.23.21.51.21.85,0,.26-.05.5-.15.71-.1.21-.25.4-.46.57-.17.14-.36.24-.56.31-.2.07-.41.12-.62.14-.21.02-.43.02-.64,0-.22-.02-.43-.06-.63-.11-.02,0-.06-.02-.12-.03-.06-.01-.13-.03-.21-.05-.07-.02-.14-.03-.2-.04-.06-.01-.1-.02-.11-.02-.08.02-.13.07-.14.15h-.14Z"/><path class="cls-25" d="M130.53,89.61h.97l1.06-.75h-1.68s-.31.71-.35.75Z"/></g></svg>