<?xml version="1.0" encoding="UTF-8"?><svg id="Capa_2" xmlns="http://www.w3.org/2000/svg" xmlns:xlink="http://www.w3.org/1999/xlink" viewBox="0 0 240.25 91.21"><defs><style>.cls-1{fill:url(#Degradado_sin_nombre_30-4);}.cls-1,.cls-2,.cls-3,.cls-4,.cls-5,.cls-6{fill-rule:evenodd;}.cls-2{fill:url(#Degradado_sin_nombre_30-3);}.cls-3{fill:url(#Degradado_sin_nombre_30-5);}.cls-4{fill:url(#Degradado_sin_nombre_30-2);}.cls-5{fill:url(#Degradado_sin_nombre_30-7);}.cls-6{fill:url(#Degradado_sin_nombre_30-6);}.cls-7{fill:url(#Degradado_sin_nombre_30-8);}.cls-8{fill:url(#Degradado_sin_nombre_30);}</style><linearGradient id="Degradado_sin_nombre_30" x1="138.95" y1="135.53" x2="156.24" y2="24.35" gradientUnits="userSpaceOnUse"><stop offset="0" stop-color="#996b11"/><stop offset=".25" stop-color="#bc9b54"/><stop offset=".52" stop-color="#956608"/><stop offset=".8" stop-color="#c4a058"/><stop offset="1" stop-color="#9f7217"/></linearGradient><linearGradient id="Degradado_sin_nombre_30-2" x1="-7.96" y1="77.26" x2="5.54" y2="-9.57" xlink:href="#Degradado_sin_nombre_30"/><linearGradient id="Degradado_sin_nombre_30-3" x1=".92" y1="78.65" x2="14.43" y2="-8.18" xlink:href="#Degradado_sin_nombre_30"/><linearGradient id="Degradado_sin_nombre_30-4" x1="1.13" y1="78.68" x2="14.64" y2="-8.15" xlink:href="#Degradado_sin_nombre_30"/><linearGradient id="Degradado_sin_nombre_30-5" x1="2.85" y1="78.95" x2="16.35" y2="-7.88" xlink:href="#Degradado_sin_nombre_30"/><linearGradient id="Degradado_sin_nombre_30-6" x1="-1.75" y1="78.23" x2="11.76" y2="-8.6" xlink:href="#Degradado_sin_nombre_30"/><linearGradient id="Degradado_sin_nombre_30-7" x1="35.37" y1="84" x2="48.88" y2="-2.83" xlink:href="#Degradado_sin_nombre_30"/><linearGradient id="Degradado_sin_nombre_30-8" x1="25.45" y1="82.46" x2="38.95" y2="-4.37" xlink:href="#Degradado_sin_nombre_30"/></defs><g id="Capa_1-2"><path class="cls-8" d="M230.03,46.02c1.43,0,10.23-.47,10.23-2.62,0-.24-.24-.24-.48-.24-.47,0-.95,0-2.38.48-1.67.24-4.04.48-6.9.48-6.66,0-14.75-.71-14.75-.71-.23-.24,4.04-6.42,6.19-9.99,9.75-15.7,12.55-17.76,9.93-19.19-.48-.24-.72-.24-.72-.24-2.85-.24-17.78,24.19-20.16,28.23-.23.71,0,.95-.95.95-.71,0-1.9-.24-4.99-.47-6.19-.24-14.27-.72-22.36-.72-12.84,0-25.69,1.19-30.44,6.9-3.81,4.28-1.9,7.13-.71,7.13.23,0,.47-.47.23-1.43-.95-2.85,3.33-6.66,8.8-8.32,5.23-1.67,14.03-2.14,22.84-2.14s17.6.48,23.07.95c3.09.24,2.85,0,2.38.71-3.31,5.32-12.78,19.42-17.13,30.53-3.17,3.72-10.46,12.28-14.98,12.28h-.71c-.95-.24-1.43-.95-1.19-1.9,1.43-8.09,14.51-19.98,9.04-23.07-.48-.24-.71-.24-1.19-.24-4.99,0-14.98,9.99-17.84,12.84-6.66,6.66-9.04,8.56-9.52,8.56s0-1.19.48-2.38c3.8-9.99,9.75-14.03,7.37-16.17-.24-.24-.48-.24-.71-.24-2.18,0-6.06,4.8-8.75,9.95-3.64,3.9-11.31,12.41-16.23,12.41h-.71c-3.57-.95,1.9-8.8,4.28-12.13,1.67-2.85,2.14-3.57,1.9-4.52-.24-.95-.71-1.43-1.67-1.43-.47,0-.95,0-1.43.24-3.8,1.67-16.89,15.7-17.6,15.22-.71-.71,5.23-12.84,15.94-18.79.47.48.71.71.71,1.67.24.95.47,1.19.71,1.19.71,0,1.67-2.62.71-4.28-.71-1.19-1.67-1.67-2.85-1.67-3.8,0-9.51,4.99-12.37,8.32-1.25,1.45-2.36,3.02-3.3,4.6-4.08,4.52-11.41,12.05-16.91,12.05-2.38,0-3.57-1.43-2.61-4.99,2.14-7.61,13.56-19.27,15.7-19.74.24,0,.47,2.14.24,3.33-.48,2.85-3.81,6.9-5,5.95-.95-.95-1.43,1.67.71,1.43,5.23-.71,9.75-13.56,3.8-13.56-.71,0-1.19,0-1.9.24-3.55.97-10.68,7.4-14.56,14.33-2.89,3.37-10.68,12.79-15.41,12.79h-.71c-.95-.24-1.43-.95-1.19-1.9,1.43-8.09,14.51-19.98,9.04-23.07-.47-.24-.71-.24-1.19-.24-5,0-14.98,9.99-17.84,12.84-6.66,6.66-9.04,8.56-9.51,8.56s0-1.19.47-2.38c3.81-9.99,9.75-14.03,7.37-16.17-.24-.24-.47-.24-.71-.24-4.76,0-17.6,22.83-8.56,22.36,4.52-.24,15.94-16.65,24.74-21.41,1.43-.71,2.38-1.19,2.62-1.19,1.9,0-8.57,9.28-9.99,18.55-.71,4.04,1.43,6.9,5,6.9,1.43,0,3.09-.48,5-1.67,2.12-1.42,5.83-5.47,8.86-9.02-.51,1.72-.74,3.41-.54,4.98.24,4.99,3.09,5.23,6.9,5.23,4.01-.84,7.46-3,13.98-9.44-1.58,4.17-1.45,7.53,1.48,7.53s9.04-8.32,15.94-14.27c-.95,1.43-6.66,9.75-4.04,14.03.95,1.43,2.38,1.9,3.81,1.9.95,0,2.14,0,3.09-.48,3.66-1.35,8.56-6.28,12.07-10.13-1.76,4.67-1.87,8.67,1.97,8.47,4.52-.24,15.94-16.65,24.74-21.41,1.43-.71,2.38-1.19,2.62-1.19,1.9,0-8.56,9.28-9.99,18.55-.72,4.04,1.43,6.9,4.99,6.9,1.43,0,3.09-.48,5-1.67,2.19-1.46,6.04-5.7,9.12-9.32-1.56,5.42-1.28,9.6,2.54,10.75h.95c2.61,0,6.18-2.62,11.89-8.8.28-.32.5-.58.73-.85-.21.59-.38,1.13-.49,1.57-1.19,4.76.95,8.33,4.04,8.33,3.33,0,7.85-3.57,11.89-12.61.47-.95.47-1.19.71-1.19s.47,0,.95.24c.95.24,2.38.24,3.8.24,1.67,0,3.33,0,5-.48s0-1.67,0-1.67c-1.9.48-3.57.48-5.47.48-1.43,0-3.33-.71-3.33-.71.23-.72,1.9-4.52,1.9-8.8,0-2.62-1.19-4.04-2.85-4.04-1.19,0-2.62.71-4.04,2.14-.71.95-1.67,2.62-1.67,3.33,0,.24-.24.48-.95.48-2.24-.14-4.97,3.51-7.03,7.32-3.41,4.56-11.32,12.9-14.61,12.9-.95,0-1.43-.71-1.43-2.14.24-8.56,16.41-34.01,21.17-41.15,7.85.24,12.61.47,15.94.47ZM219.08,67.43c.48-1.19,2.14-2.85,3.33-2.85.71,0,1.43.71,1.19,2.62,0,2.62-1.67,7.13-1.9,7.13-.47,0-3.8-3.33-2.62-6.9ZM217.18,71.71c1.19,2.38.95,2.38,3.8,4.76-4.28,8.09-7.85,11.42-9.75,11.42-2.62,0-1.67-6.9,5.95-16.17Z"/><path class="cls-4" d="M1.06,7.48c-.85,2.02.24,3.25,1.25,4.39.61.69,1.2,1.36,1.43,2.14.65-1.67-.23-2.71-1.13-3.77-.7-.83-1.4-1.66-1.56-2.76h0ZM1.79,12.34c-1.41-1.59-2.94-3.31-.5-6.64.08-.14.26-.2.42-.15.19.06.29.26.22.45-.55,1.66.35,2.73,1.24,3.78,1.26,1.5,2.51,2.97.52,5.8-.08.14-.25.22-.42.16-.19-.06-.29-.26-.23-.45.36-1.14-.42-2.02-1.25-2.96h0Z"/><path class="cls-2" d="M5.36,21.01c1.89-3.35,3.94-2.71,5.83-2.13,1.12.35,2.17.67,2.99-.07.14-.12.35-.11.47.03.11.12.11.29.02.42-1.65,2.78-3.37,2.29-5.13,1.79-1.24-.35-2.49-.71-3.69.4-.13.12-.34.12-.47-.02-.11-.12-.12-.29-.03-.41h0ZM11,19.52c-1.36-.42-2.82-.87-4.21.62.99-.29,1.97-.01,2.94.26,1.24.35,2.47.7,3.64-.49-.75.11-1.54-.14-2.37-.39h0Z"/><path class="cls-1" d="M16.35,3.12c.16,1.13.08,2.29-.27,3.39-.33,1.06-.9,2.06-1.71,2.93-.81.86-1.78,1.5-2.81,1.9-1.08.41-2.23.58-3.37.48-.23-.02-.41-.22-.39-.46.01-.16.11-.29.24-.35.92-.43,1.73-1.07,2.38-1.87.62-.77,1.08-1.68,1.32-2.71.1-.42.16-.85.17-1.26.02-.42,0-.85-.07-1.26-.03-.2.08-.38.25-.45.6-.28,1.23-.48,1.88-.6.65-.12,1.32-.15,1.99-.1.2.02.36.17.39.36h0ZM15.26,6.26c.27-.87.37-1.78.28-2.67-.48-.01-.95.02-1.42.11-.48.09-.95.22-1.4.41.04.36.05.73.03,1.1-.02.47-.08.95-.2,1.42-.27,1.15-.79,2.18-1.49,3.05-.38.46-.8.88-1.27,1.24.49-.07.97-.2,1.44-.38.92-.35,1.78-.92,2.5-1.68.72-.77,1.23-1.66,1.52-2.6h0Z"/><path class="cls-3" d="M19.39,8.29c-.42,1.06-1.08,2.02-1.93,2.8-.82.75-1.81,1.33-2.95,1.68-1.13.34-2.29.41-3.38.24-1.14-.18-2.22-.62-3.16-1.27-.19-.13-.24-.4-.11-.59.09-.13.24-.2.39-.18,1.01.08,2.03-.06,2.98-.43.92-.35,1.78-.92,2.5-1.68.3-.32.56-.65.78-1,.23-.36.42-.74.58-1.13.07-.18.25-.28.43-.27.67.06,1.32.2,1.94.42.63.22,1.22.53,1.77.91.17.12.23.33.15.51h0ZM16.89,10.47c.67-.61,1.2-1.36,1.58-2.17-.4-.25-.83-.46-1.28-.62-.46-.16-.93-.28-1.42-.34-.15.33-.32.66-.52.97-.25.4-.55.78-.88,1.13-.81.86-1.78,1.5-2.81,1.9-.56.21-1.14.36-1.72.44.46.18.94.31,1.44.39.97.15,2,.1,3.01-.21,1.01-.3,1.89-.82,2.62-1.49h0Z"/><path class="cls-6" d="M11.13.18c.7.89,1.2,1.94,1.45,3.06.24,1.08.25,2.24-.02,3.39-.27,1.15-.79,2.18-1.49,3.05-.72.9-1.64,1.61-2.67,2.1-.19.09-.41.03-.53-.14-.7-.89-1.2-1.94-1.45-3.06-.24-1.08-.25-2.24.02-3.39.27-1.15.79-2.18,1.49-3.05.72-.9,1.64-1.61,2.67-2.1.19-.09.41-.03.53.14h0ZM11.75,3.42c-.2-.89-.57-1.72-1.09-2.45-.79.43-1.5,1.01-2.07,1.71-.62.77-1.08,1.68-1.32,2.71-.24,1.02-.23,2.05-.02,3.01.2.89.57,1.72,1.09,2.45.79-.43,1.5-1.01,2.07-1.71.62-.77,1.08-1.68,1.32-2.71.24-1.02.23-2.05.02-3.01h0Z"/><path class="cls-5" d="M41.8,47.58l-4.4-4.86c-.11-.12-.03-.3.13-.31l5.75-.26c.57,0,.64-.21.1-.24l-6.2-.34,1.37-1.36s.08-.05.13-.05h6.47s.09.02.12.05l1.83,1.62c.08.07.08.19.02.26l-2.78,3.14c-.2.21-.03.32.16.15l3.95-3.25c.08-.07.09-.19.02-.27l-2.63-2.77s-.08-.06-.13-.06h-7.79c-.05,0-.1.02-.14.06l-2.44,2.78c-.07.07-.06.19.01.26l6.28,6.08c.41.42.68-.05.17-.62Z"/><path class="cls-7" d="M7.35,14.44c-1.2,1.09-2.19,2.47-2.63,4.03-.47,1.54-.31,3.23.48,4.61,1.57,2.86,5.05,4.04,8.29,4.46,3.33.43,6.74.23,10.09-.22,3.36-.46,6.68-1.23,9.94-2.19,6.51-1.93,12.84-4.58,18.68-8,2.92-1.71,5.72-3.61,8.27-5.77,1.27-1.08,2.5-2.21,3.5-3.44.5-.61.93-1.26,1.21-1.88.3-.63.35-1.22.22-1.5-.1-.27-.47-.57-1.1-.76-.61-.19-1.36-.25-2.12-.25-1.53,0-3.14.3-4.71.73-3.15.86-6.19,2.26-9.05,3.95-2.84,1.73-5.62,3.6-7.39,6.08-.86,1.24-1.43,2.6-1.44,4.03-.03,1.43.51,2.89,1.37,4.2.87,1.32,2.02,2.44,3.36,3.47.68.58,1.37,1.03,2.05,1.87.14.23.42.51.36,1.15-.15.68-.61.85-.84.98-.53.22-.96.3-1.41.39-3.47.55-6.81.93-10.12,1.77-6.57,1.63-12.93,4.3-18.02,8.45-2.53,2.08-4.64,4.56-6.37,7.22-1.67,2.71-3.01,5.58-3.92,8.64-1.96,6.05-1.82,12.62.96,18.27,5.55,11.33,21.01,17.6,33.53,12.75,3.12-1.21,6.13-2.79,8.69-4.93,2.57-2.11,4.71-4.73,6.13-7.67,1.4-2.94,2.09-6.21,1.73-9.41-.35-3.18-1.65-6.25-3.8-8.69-4.19-5.02-11.42-7.07-17.75-5.27-3.17.85-6.08,2.61-8.32,5.03-2.25,2.41-3.77,5.49-4.52,8.76-.06.27-.33.44-.6.38-.26-.06-.43-.32-.38-.58.65-3.44,2.12-6.78,4.46-9.49,2.31-2.73,5.5-4.66,8.92-5.67,3.43-1.02,7.15-1.06,10.62-.11,3.49.92,6.68,2.93,9.09,5.62,2.42,2.68,4.09,6.15,4.42,9.8.37,3.64-.43,7.34-2.11,10.51-1.67,3.18-4.06,5.92-6.84,8.08-2.77,2.18-5.85,3.94-9.11,5.22-6.56,2.71-14.07,2.79-20.89.69-6.81-2.09-13.17-6.55-16.93-13.05-3.86-6.48-4.19-14.7-2.03-21.67,1.99-7.11,6.99-13.29,13.06-17.11,6.02-3.98,12.87-6.04,19.67-7.26,3.39-.65,6.87-1.02,10.16-1.64.39-.08.8-.19,1.06-.32.14-.06.1-.14.01.09,0,.21.01.1-.1,0-.42-.47-1.16-1.01-1.84-1.47-1.45-.95-2.9-2.14-4.03-3.61-1.13-1.46-2.01-3.29-2.13-5.31-.13-2.01.52-4.03,1.56-5.63,2.1-3.25,5.23-5.27,8.22-7.05,3.06-1.77,6.32-3.23,9.79-4.15,1.74-.45,3.54-.77,5.44-.77.95,0,1.93.11,2.95.44.98.32,2.22,1.03,2.72,2.41.45,1.37.05,2.58-.37,3.47-.45.92-1.02,1.69-1.62,2.39-1.21,1.4-2.55,2.56-3.92,3.66-2.75,2.19-5.72,4.05-8.77,5.71-6.12,3.28-12.6,5.83-19.27,7.64-6.67,1.71-13.59,3.05-20.58,2.17-1.73-.25-3.47-.67-5.09-1.46-1.61-.77-3.1-2-3.95-3.65-.9-1.63-1-3.62-.48-5.36.49-1.76,1.57-3.29,2.89-4.49.2-.18.51-.17.69.03.18.2.17.51-.03.69h0s0,0,0,0Z"/></g></svg>